<mxfile host="app.diagrams.net" modified="2023-09-09T00:41:08.624Z" agent="Mozilla/5.0 (Windows NT 10.0; Win64; x64) AppleWebKit/537.36 (KHTML, like Gecko) Chrome/116.0.0.0 Safari/537.36" etag="4NrQIYnkoRlTmz8m4I_g" version="21.7.4" type="device">
  <diagram name="Página-1" id="tdDdDdI44-iRejUF5_0h">
    <mxGraphModel dx="633" dy="629" grid="1" gridSize="10" guides="1" tooltips="1" connect="1" arrows="1" fold="1" page="1" pageScale="1" pageWidth="827" pageHeight="1169" math="0" shadow="0">
      <root>
        <mxCell id="0" />
        <mxCell id="1" parent="0" />
        <mxCell id="mHhTptAM0eaOa5p4Wo3K-2" value="ELIJA&lt;br&gt;UN&lt;br&gt;MÉTODO" style="rhombus;whiteSpace=wrap;html=1;fillColor=#0050ef;fontColor=#ffffff;strokeColor=#001DBC;" vertex="1" parent="1">
          <mxGeometry x="200" y="180" width="120" height="80" as="geometry" />
        </mxCell>
        <mxCell id="mHhTptAM0eaOa5p4Wo3K-4" value="" style="endArrow=classic;html=1;rounded=0;exitX=0;exitY=0.5;exitDx=0;exitDy=0;entryX=0.5;entryY=0;entryDx=0;entryDy=0;" edge="1" parent="1" source="mHhTptAM0eaOa5p4Wo3K-2" target="mHhTptAM0eaOa5p4Wo3K-17">
          <mxGeometry width="50" height="50" relative="1" as="geometry">
            <mxPoint x="380" y="530" as="sourcePoint" />
            <mxPoint x="120" y="300" as="targetPoint" />
            <Array as="points">
              <mxPoint x="120" y="220" />
            </Array>
          </mxGeometry>
        </mxCell>
        <mxCell id="mHhTptAM0eaOa5p4Wo3K-3" value="BINARIO&lt;br&gt;EXE" style="ellipse;whiteSpace=wrap;html=1;aspect=fixed;fillColor=#6a00ff;fontColor=#ffffff;strokeColor=#3700CC;" vertex="1" parent="1">
          <mxGeometry x="90" y="190" width="60" height="60" as="geometry" />
        </mxCell>
        <mxCell id="mHhTptAM0eaOa5p4Wo3K-6" value="" style="endArrow=classic;html=1;rounded=0;exitX=1;exitY=0.5;exitDx=0;exitDy=0;entryX=0.5;entryY=0;entryDx=0;entryDy=0;" edge="1" parent="1" source="mHhTptAM0eaOa5p4Wo3K-2" target="mHhTptAM0eaOa5p4Wo3K-18">
          <mxGeometry width="50" height="50" relative="1" as="geometry">
            <mxPoint x="340" y="170" as="sourcePoint" />
            <mxPoint x="400" y="300" as="targetPoint" />
            <Array as="points">
              <mxPoint x="400" y="220" />
            </Array>
          </mxGeometry>
        </mxCell>
        <mxCell id="mHhTptAM0eaOa5p4Wo3K-5" value="SCRIPT&lt;br&gt;PYTHON" style="ellipse;whiteSpace=wrap;html=1;aspect=fixed;fillColor=#6a00ff;fontColor=#ffffff;strokeColor=#3700CC;" vertex="1" parent="1">
          <mxGeometry x="370" y="190" width="60" height="60" as="geometry" />
        </mxCell>
        <mxCell id="mHhTptAM0eaOa5p4Wo3K-8" value="" style="edgeStyle=orthogonalEdgeStyle;rounded=0;orthogonalLoop=1;jettySize=auto;html=1;" edge="1" parent="1" target="mHhTptAM0eaOa5p4Wo3K-2">
          <mxGeometry relative="1" as="geometry">
            <mxPoint x="260" y="140" as="sourcePoint" />
          </mxGeometry>
        </mxCell>
        <mxCell id="mHhTptAM0eaOa5p4Wo3K-11" value="" style="edgeStyle=orthogonalEdgeStyle;rounded=0;orthogonalLoop=1;jettySize=auto;html=1;" edge="1" parent="1" source="mHhTptAM0eaOa5p4Wo3K-7" target="mHhTptAM0eaOa5p4Wo3K-10">
          <mxGeometry relative="1" as="geometry" />
        </mxCell>
        <mxCell id="mHhTptAM0eaOa5p4Wo3K-7" value="¡ Quiero usar&lt;br&gt;tRAckOverlayer !" style="ellipse;shape=cloud;whiteSpace=wrap;html=1;fillColor=#00256E;fontColor=#ffffff;strokeColor=#001DBC;" vertex="1" parent="1">
          <mxGeometry x="190" width="140" height="80" as="geometry" />
        </mxCell>
        <UserObject label="descargar última versión AQUI" link="https://github.com/pinakure/yt-obs/releases" linkTarget="_blank" id="mHhTptAM0eaOa5p4Wo3K-10">
          <mxCell style="rounded=0;whiteSpace=wrap;html=1;fillColor=#008a00;fontColor=#ffffff;strokeColor=#005700;" vertex="1" parent="1">
            <mxGeometry x="180" y="110" width="160" height="40" as="geometry" />
          </mxCell>
        </UserObject>
        <mxCell id="mHhTptAM0eaOa5p4Wo3K-22" value="" style="edgeStyle=orthogonalEdgeStyle;rounded=0;orthogonalLoop=1;jettySize=auto;html=1;" edge="1" parent="1" source="mHhTptAM0eaOa5p4Wo3K-17" target="mHhTptAM0eaOa5p4Wo3K-20">
          <mxGeometry relative="1" as="geometry" />
        </mxCell>
        <mxCell id="mHhTptAM0eaOa5p4Wo3K-17" value="&lt;b style=&quot;border-color: var(--border-color);&quot;&gt;tRAckOverlayer.exe&amp;nbsp;&lt;br&gt;&amp;amp;&lt;br&gt;plugins.zip&lt;br&gt;&lt;/b&gt;" style="rounded=0;whiteSpace=wrap;html=1;fillColor=#008a00;fontColor=#ffffff;strokeColor=#005700;" vertex="1" parent="1">
          <mxGeometry x="60" y="310" width="120" height="50" as="geometry" />
        </mxCell>
        <mxCell id="mHhTptAM0eaOa5p4Wo3K-25" value="" style="edgeStyle=orthogonalEdgeStyle;rounded=0;orthogonalLoop=1;jettySize=auto;html=1;" edge="1" parent="1" source="mHhTptAM0eaOa5p4Wo3K-18" target="mHhTptAM0eaOa5p4Wo3K-24">
          <mxGeometry relative="1" as="geometry" />
        </mxCell>
        <mxCell id="mHhTptAM0eaOa5p4Wo3K-18" value="&lt;b style=&quot;border-color: var(--border-color);&quot;&gt;source code (zip)&lt;/b&gt;" style="rounded=0;whiteSpace=wrap;html=1;fillColor=#008a00;fontColor=#ffffff;strokeColor=#005700;" vertex="1" parent="1">
          <mxGeometry x="360" y="310" width="80" height="50" as="geometry" />
        </mxCell>
        <mxCell id="mHhTptAM0eaOa5p4Wo3K-23" value="" style="edgeStyle=orthogonalEdgeStyle;rounded=0;orthogonalLoop=1;jettySize=auto;html=1;" edge="1" parent="1" source="mHhTptAM0eaOa5p4Wo3K-20" target="mHhTptAM0eaOa5p4Wo3K-21">
          <mxGeometry relative="1" as="geometry" />
        </mxCell>
        <mxCell id="mHhTptAM0eaOa5p4Wo3K-20" value="&lt;b style=&quot;border-color: var(--border-color);&quot;&gt;guardar el exe&lt;br&gt;en cualquier sitio&lt;br&gt;&lt;/b&gt;" style="rounded=0;whiteSpace=wrap;html=1;fillColor=#008a00;fontColor=#ffffff;strokeColor=#005700;" vertex="1" parent="1">
          <mxGeometry x="60" y="390" width="120" height="50" as="geometry" />
        </mxCell>
        <mxCell id="mHhTptAM0eaOa5p4Wo3K-21" value="&lt;b style=&quot;border-color: var(--border-color);&quot;&gt;descomprimir plugins.zip en el&lt;br&gt;mismo sitio que el&lt;br&gt;archivo .exe&lt;br&gt;&lt;/b&gt;" style="rounded=0;whiteSpace=wrap;html=1;fillColor=#008a00;fontColor=#ffffff;strokeColor=#005700;" vertex="1" parent="1">
          <mxGeometry x="60" y="460" width="120" height="60" as="geometry" />
        </mxCell>
        <mxCell id="mHhTptAM0eaOa5p4Wo3K-28" value="" style="edgeStyle=orthogonalEdgeStyle;rounded=0;orthogonalLoop=1;jettySize=auto;html=1;" edge="1" parent="1" source="mHhTptAM0eaOa5p4Wo3K-26" target="mHhTptAM0eaOa5p4Wo3K-27">
          <mxGeometry relative="1" as="geometry" />
        </mxCell>
        <mxCell id="mHhTptAM0eaOa5p4Wo3K-24" value="&lt;b style=&quot;border-color: var(--border-color);&quot;&gt;descomprimir en&lt;br&gt;cualquier sitio&lt;br&gt;&lt;/b&gt;" style="rounded=0;whiteSpace=wrap;html=1;fillColor=#008a00;fontColor=#ffffff;strokeColor=#005700;" vertex="1" parent="1">
          <mxGeometry x="340" y="390" width="120" height="50" as="geometry" />
        </mxCell>
        <mxCell id="mHhTptAM0eaOa5p4Wo3K-37" value="" style="edgeStyle=orthogonalEdgeStyle;rounded=0;orthogonalLoop=1;jettySize=auto;html=1;" edge="1" parent="1" source="mHhTptAM0eaOa5p4Wo3K-27" target="mHhTptAM0eaOa5p4Wo3K-35">
          <mxGeometry relative="1" as="geometry" />
        </mxCell>
        <mxCell id="mHhTptAM0eaOa5p4Wo3K-27" value="&lt;b style=&quot;border-color: var(--border-color);&quot;&gt;esperar mientras&lt;br&gt;se autoinstalan las&amp;nbsp;&lt;br&gt;librerías necesarias&lt;br&gt;&lt;/b&gt;" style="rounded=0;whiteSpace=wrap;html=1;fillColor=#008a00;fontColor=#ffffff;strokeColor=#005700;" vertex="1" parent="1">
          <mxGeometry x="340" y="530" width="120" height="60" as="geometry" />
        </mxCell>
        <mxCell id="mHhTptAM0eaOa5p4Wo3K-29" value="" style="edgeStyle=orthogonalEdgeStyle;rounded=0;orthogonalLoop=1;jettySize=auto;html=1;" edge="1" parent="1" source="mHhTptAM0eaOa5p4Wo3K-24" target="mHhTptAM0eaOa5p4Wo3K-26">
          <mxGeometry relative="1" as="geometry">
            <mxPoint x="400" y="440" as="sourcePoint" />
            <mxPoint x="400" y="550" as="targetPoint" />
          </mxGeometry>
        </mxCell>
        <mxCell id="mHhTptAM0eaOa5p4Wo3K-26" value="&lt;b style=&quot;border-color: var(--border-color);&quot;&gt;ejecutar script main.py&lt;br&gt;(Python 3.9)&lt;br&gt;&lt;/b&gt;" style="rounded=0;whiteSpace=wrap;html=1;fillColor=#008a00;fontColor=#ffffff;strokeColor=#005700;" vertex="1" parent="1">
          <mxGeometry x="340" y="460" width="120" height="50" as="geometry" />
        </mxCell>
        <mxCell id="mHhTptAM0eaOa5p4Wo3K-30" value="&lt;b style=&quot;border-color: var(--border-color);&quot;&gt;ejecutar&lt;br&gt;tRAckOverlayer.exe&lt;br&gt;&lt;/b&gt;" style="rounded=0;whiteSpace=wrap;html=1;fillColor=#008a00;fontColor=#ffffff;strokeColor=#005700;" vertex="1" parent="1">
          <mxGeometry x="60" y="540" width="120" height="30" as="geometry" />
        </mxCell>
        <mxCell id="mHhTptAM0eaOa5p4Wo3K-31" value="" style="edgeStyle=orthogonalEdgeStyle;rounded=0;orthogonalLoop=1;jettySize=auto;html=1;entryX=0.5;entryY=0;entryDx=0;entryDy=0;exitX=0.5;exitY=1;exitDx=0;exitDy=0;" edge="1" parent="1" source="mHhTptAM0eaOa5p4Wo3K-21" target="mHhTptAM0eaOa5p4Wo3K-30">
          <mxGeometry relative="1" as="geometry">
            <mxPoint x="120" y="530" as="sourcePoint" />
            <mxPoint x="129" y="532" as="targetPoint" />
          </mxGeometry>
        </mxCell>
        <mxCell id="mHhTptAM0eaOa5p4Wo3K-42" style="edgeStyle=orthogonalEdgeStyle;rounded=0;orthogonalLoop=1;jettySize=auto;html=1;exitX=0.5;exitY=1;exitDx=0;exitDy=0;entryX=0;entryY=0.5;entryDx=0;entryDy=0;" edge="1" parent="1" source="mHhTptAM0eaOa5p4Wo3K-32" target="mHhTptAM0eaOa5p4Wo3K-41">
          <mxGeometry relative="1" as="geometry" />
        </mxCell>
        <mxCell id="mHhTptAM0eaOa5p4Wo3K-32" value="&lt;b style=&quot;border-color: var(--border-color);&quot;&gt;aceptar posible&lt;br&gt;advertencia de virus&lt;br&gt;&lt;/b&gt;" style="rounded=0;whiteSpace=wrap;html=1;fillColor=#008a00;fontColor=#ffffff;strokeColor=#005700;" vertex="1" parent="1">
          <mxGeometry x="60" y="600" width="120" height="40" as="geometry" />
        </mxCell>
        <mxCell id="mHhTptAM0eaOa5p4Wo3K-33" value="" style="edgeStyle=orthogonalEdgeStyle;rounded=0;orthogonalLoop=1;jettySize=auto;html=1;entryX=0.5;entryY=0;entryDx=0;entryDy=0;" edge="1" parent="1" target="mHhTptAM0eaOa5p4Wo3K-32">
          <mxGeometry relative="1" as="geometry">
            <mxPoint x="120" y="570" as="sourcePoint" />
            <mxPoint x="130" y="550" as="targetPoint" />
          </mxGeometry>
        </mxCell>
        <mxCell id="mHhTptAM0eaOa5p4Wo3K-39" value="" style="edgeStyle=orthogonalEdgeStyle;rounded=0;orthogonalLoop=1;jettySize=auto;html=1;entryX=1;entryY=0.5;entryDx=0;entryDy=0;" edge="1" parent="1" source="mHhTptAM0eaOa5p4Wo3K-35">
          <mxGeometry relative="1" as="geometry">
            <mxPoint x="319.99999999999886" y="749.9999999999998" as="targetPoint" />
            <Array as="points">
              <mxPoint x="400" y="750" />
            </Array>
          </mxGeometry>
        </mxCell>
        <mxCell id="mHhTptAM0eaOa5p4Wo3K-35" value="&lt;b style=&quot;border-color: var(--border-color);&quot;&gt;ejecutar script main.py otra vez&lt;br&gt;&lt;/b&gt;" style="rounded=0;whiteSpace=wrap;html=1;fillColor=#008a00;fontColor=#ffffff;strokeColor=#005700;" vertex="1" parent="1">
          <mxGeometry x="340" y="610" width="120" height="30" as="geometry" />
        </mxCell>
        <mxCell id="mHhTptAM0eaOa5p4Wo3K-41" value="&lt;b style=&quot;border-color: var(--border-color);&quot;&gt;CONFIGURAR&lt;br&gt;tracker&lt;br&gt;&amp;amp;&lt;br&gt;plugins&lt;br&gt;&lt;/b&gt;" style="shape=process;whiteSpace=wrap;html=1;backgroundOutline=1;fillColor=#60a917;strokeColor=#2D7600;fontColor=#ffffff;" vertex="1" parent="1">
          <mxGeometry x="200" y="720" width="120" height="80" as="geometry" />
        </mxCell>
      </root>
    </mxGraphModel>
  </diagram>
</mxfile>
